<svg height="512" viewBox="0 0 58 58" width="512" xmlns="http://www.w3.org/2000/svg"><g id="Page-1" fill="none" fill-rule="evenodd"><g id="024---Server-Settings" fill-rule="nonzero"><path id="Shape" d="m40 4v40c0 2.15-8.49 3.91-19.15 3.99h-1.7c-10.66-.08-19.15-1.84-19.15-3.99v-40z" fill="#955ba5"/><path id="Shape" d="m0 30c0 2.2 8.89 3.99 19.89 4h.11c11-.01 19.89-1.8 19.89-4v-13c0 2.2-8.89 3.99-19.89 4h-.11c-11-.01-19.89-1.8-19.89-4z" fill="#894b9d"/><circle id="Oval" cx="4" cy="10" fill="#f0c419" r="1"/><path id="Shape" d="m4 17c-.55228475 0-1-.4477153-1-1v-2c0-.5522847.44771525-1 1-1s1 .4477153 1 1v2c0 .5522847-.44771525 1-1 1z" fill="#894b9d"/><circle id="Oval" cx="4" cy="23" fill="#f0c419" r="1"/><path id="Shape" d="m4 30c-.55228475 0-1-.4477153-1-1v-2c0-.5522847.44771525-1 1-1s1 .4477153 1 1v2c0 .5522847-.44771525 1-1 1z" fill="#3d324c"/><circle id="Oval" cx="4" cy="36" fill="#f0c419" r="1"/><path id="Shape" d="m4 43c-.55228475 0-1-.4477153-1-1v-2c0-.5522847.44771525-1 1-1s1 .4477153 1 1v2c0 .5522847-.44771525 1-1 1z" fill="#894b9d"/><path id="Shape" d="m57.208 32.841-4.908-1.635c-.3391307-1.1638266-.8021119-2.2879223-1.381-3.353l2.308-4.616c.2230321-.4459105.1356139-.9845189-.217-1.337l-2.91-2.913c-.3524811-.3526139-.8910895-.4400321-1.337-.217l-4.616 2.308c-1.0652026-.5778539-2.1892942-1.0398277-3.353-1.378l-1.635-4.9c-.1548165-.4762464-.5982228-.7990172-1.099-.8h-4.12c-.4990136-.0005863-.9422809.3185661-1.1.792l-1.635 4.9c-1.1638266.3391307-2.2879223.8021119-3.353 1.381l-4.615-2.303c-.4459105-.2230321-.9845189-.1356139-1.337.217l-2.913 2.913c-.3526139.3524811-.4400321.8910895-.217 1.337l2.308 4.616c-.5778539 1.0652026-1.0398277 2.1892942-1.378 3.353l-4.9 1.635c-.4762464.1548165-.7990172.5982228-.8 1.099v4.12c-.0005863.4990136.3185661.9422809.792 1.1l4.9 1.635c.3391307 1.1638266.8021119 2.2879223 1.381 3.353l-2.303 4.615c-.2230321.4459105-.1356139.9845189.217 1.337l2.913 2.913c.3524811.3526139.8910895.4400321 1.337.217l4.616-2.308c1.0652026.5778539 2.1892942 1.0398277 3.353 1.378l1.635 4.905c.1577191.4734339.6009864.7925863 1.1.792h4.12c.4990136.0005863.9422809-.3185661 1.1-.792l1.633-4.905c1.1638266-.3391307 2.2879223-.8021119 3.353-1.381l4.616 2.308c.4459105.2230321.9845189.1356139 1.337-.217l2.913-2.91c.3526139-.3524811.4400321-.8910895.217-1.337l-2.308-4.616c.5778539-1.0652026 1.0398277-2.1892942 1.378-3.353l4.905-1.635c.4742699-.1565611.7947265-.599557.795-1.099v-4.12c.0001554-.4986456-.3189157-.941397-.792-1.099z" fill="#95a5a5"/><circle id="Oval" cx="36" cy="36" fill="#7f8c8d" r="12"/><circle id="Oval" cx="36" cy="36" fill="#35495e" r="2"/><path id="Shape" d="m29 37c-.5522847 0-1-.4477153-1-1 .0049599-4.4162219 3.5837781-7.9950401 8-8 .5522847 0 1 .4477153 1 1s-.4477153 1-1 1c-3.3123376.0033074-5.9966926 2.6876624-6 6 0 .5522847-.4477153 1-1 1z" fill="#547580"/><path id="Shape" d="m36 44c-.5522847 0-1-.4477153-1-1s.4477153-1 1-1c3.3123376-.0033074 5.9966926-2.6876624 6-6 0-.5522847.4477153-1 1-1s1 .4477153 1 1c-.0049599 4.4162219-3.5837781 7.9950401-8 8z" fill="#547580"/><ellipse id="Oval" cx="20" cy="4" fill="#b49aca" rx="20" ry="4"/></g></g></svg>