<svg height="512" viewBox="0 0 58 60" width="512" xmlns="http://www.w3.org/2000/svg"><g id="Page-1" fill="none" fill-rule="evenodd"><g id="034---Data-Transfer" fill-rule="nonzero"><path id="Shape" d="m0 16.5v27.5c0 2.21 5.37 4 12 4s12-1.79 12-4v-27.5z" fill="#3f5c6c"/><path id="Shape" d="m34 16.5v27.5c0 2.21 5.37 4 12 4s12-1.79 12-4v-27.5z" fill="#3f5c6c"/><path id="Shape" d="m0 35c0 2.209 5.373 4 12 4s12-1.791 12-4v-9c0 2.209-5.373 4-12 4s-12-1.791-12-4z" fill="#35495e"/><ellipse id="Oval" cx="12" cy="16.5" fill="#547580" rx="12" ry="4.5"/><path id="Shape" d="m34 35c0 2.209 5.373 4 12 4s12-1.791 12-4v-9c0 2.209-5.373 4-12 4s-12-1.791-12-4z" fill="#35495e"/><ellipse id="Oval" cx="46" cy="16.5" fill="#547580" rx="12" ry="4.5"/><path id="Shape" d="m12 27c-.5522847 0-1-.4477153-1-1s.4477153-1 1-1c2.6025314.0344036 5.1971578-.2940898 7.709-.976.3424391-.102178.7133771-.0139052.9730854.2315667.2597082.245472.3687308.6108501.286.9585-.0827309.34765-.3446463.6247554-.6870854.7269333-2.697688.736212-5.4848604 1.0926443-8.281 1.059z" fill="#35495e"/><path id="Shape" d="m12 36.017c-.5522847 0-1-.4477153-1-1s.4477153-1 1-1c2.6024553.0342092 5.197009-.2939384 7.709-.975.3448777-.1108897.7227594-.0265871.9878038.2203716s.3757997.6179503.2895206.9697927c-.0862792.3518424-.3560991.6295088-.7053244.7258357-2.697688.736212-5.4848604 1.0926443-8.281 1.059z" fill="#2c3e50"/><path id="Shape" d="m12 45.017c-.5522847 0-1-.4477153-1-1s.4477153-1 1-1c2.6024553.0342092 5.197009-.2939384 7.709-.975.3448777-.1108897.7227594-.0265871.9878038.2203716s.3757997.6179503.2895206.9697927c-.0862792.3518424-.3560991.6295088-.7053244.7258357-2.697688.736212-5.4848604 1.0926443-8.281 1.059z" fill="#35495e"/><path id="Shape" d="m6.906 17.5c-.51195124.0007166-.94176204-.3853339-.9958111-.8944245-.05404906-.5090907.28512179-.9767822.7858111-1.0835755 1.74473107-.3599895 3.5225649-.5349573 5.304-.522.5522847 0 1 .4477153 1 1s-.4477153 1-1 1c-1.6396282-.0130902-3.27604895.1471329-4.882.478-.06971796.0146306-.14076343.0220033-.212.022z" fill="#3f5c6c"/><circle id="Oval" cx="4" cy="24" fill="#ff5364" r="1"/><circle id="Oval" cx="42" cy="1" fill="#955ba5" r="1"/><circle id="Oval" cx="38" cy="1" fill="#955ba5" r="1"/><circle id="Oval" cx="34" cy="1" fill="#955ba5" r="1"/><circle id="Oval" cx="30" cy="1" fill="#955ba5" r="1"/><circle id="Oval" cx="26" cy="1" fill="#955ba5" r="1"/><circle id="Oval" cx="22" cy="1" fill="#955ba5" r="1"/><circle id="Oval" cx="18" cy="1" fill="#955ba5" r="1"/><circle id="Oval" cx="14" cy="1" fill="#955ba5" r="1"/><circle id="Oval" cx="10" cy="1" fill="#955ba5" r="1"/><circle id="Oval" cx="10" cy="5" fill="#955ba5" r="1"/><circle id="Oval" cx="10" cy="9" fill="#955ba5" r="1"/><circle id="Oval" cx="46" cy="4" fill="#955ba5" r="1"/><circle id="Oval" cx="46.031" cy="1" fill="#955ba5" r="1"/><circle id="Oval" cx="4" cy="33" fill="#ff5364" r="1"/><circle id="Oval" cx="4" cy="42" fill="#ff5364" r="1"/><path id="Shape" d="m46 27c-.5522847 0-1-.4477153-1-1s.4477153-1 1-1c2.6025314.0344036 5.1971578-.2940898 7.709-.976.3424391-.102178.7133771-.0139052.9730854.2315667.2597082.245472.3687308.6108501.286.9585-.0827309.3476499-.3446463.6247553-.6870854.7269333-2.697688.736212-5.4848604 1.0926443-8.281 1.059z" fill="#2c3e50"/><path id="Shape" d="m46 36.017c-.5522847 0-1-.4477153-1-1s.4477153-1 1-1c2.6024553.0342092 5.197009-.2939384 7.709-.975.3448777-.1108897.7227594-.0265871.9878038.2203716s.3757997.6179503.2895206.9697927c-.0862792.3518424-.3560991.6295088-.7053244.7258357-2.697688.736212-5.4848604 1.0926443-8.281 1.059z" fill="#2c3e50"/><path id="Shape" d="m46 45.017c-.5522847 0-1-.4477153-1-1s.4477153-1 1-1c2.6024553.0342092 5.197009-.2939384 7.709-.975.3448777-.1108897.7227594-.0265871.9878038.2203716s.3757997.6179503.2895206.9697927c-.0862792.3518424-.3560991.6295088-.7053244.7258357-2.697688.736212-5.4848604 1.0926443-8.281 1.059z" fill="#2c3e50"/><path id="Shape" d="m40.906 17.5c-.5119512.0007166-.941762-.3853339-.9958111-.8944245-.0540491-.5090907.2851218-.9767822.7858111-1.0835755 1.7447311-.3599895 3.5225649-.5349573 5.304-.522.5522847 0 1 .4477153 1 1s-.4477153 1-1 1c-1.6396282-.0130902-3.276049.1471329-4.882.478-.069718.0146306-.1407634.0220033-.212.022z" fill="#3f5c6c"/><circle id="Oval" cx="38" cy="24" fill="#ff5364" r="1"/><circle id="Oval" cx="38" cy="33" fill="#ff5364" r="1"/><circle id="Oval" cx="38" cy="42" fill="#ff5364" r="1"/><g fill="#955ba5"><path id="Shape" d="m46 10c-.1975323.0000443-.3906531-.05841388-.555-.168l-3-2c-.4595009-.30651805-.583518-.92749908-.277-1.38699998.3065181-.45950089.9274991-.58351803 1.387-.27700002l2.445 1.632 2.445-1.63c.4595009-.306518 1.0804819-.18250087 1.387.27700003.306518.45950089.1825009 1.08048192-.277 1.38699997l-3 2c-.1645699.10887968-.3576738.1666369-.555.166z"/><circle id="Oval" cx="16" cy="59" r="1"/><circle id="Oval" cx="20" cy="59" r="1"/><circle id="Oval" cx="24" cy="59" r="1"/><circle id="Oval" cx="28" cy="59" r="1"/><circle id="Oval" cx="32" cy="59" r="1"/><circle id="Oval" cx="36" cy="59" r="1"/><circle id="Oval" cx="40" cy="59" r="1"/><circle id="Oval" cx="44" cy="59" r="1"/><circle id="Oval" cx="48" cy="59" r="1"/><circle id="Oval" cx="48" cy="55" r="1"/><circle id="Oval" cx="48" cy="51" r="1"/><circle id="Oval" cx="12" cy="56" r="1"/><circle id="Oval" cx="11.969" cy="59" r="1"/><path id="Shape" d="m15 54c-.1971916-.000153-.3899366-.0586028-.554-.168l-2.446-1.632-2.445 1.63c-.45950091.306518-1.08048193.1825009-1.38699996-.277-.30651802-.4595009-.18250092-1.080482.27699996-1.387l3-2c.3360369-.2241995.7739631-.2241995 1.11 0l3 2c.368564.2438325.5333777.7006734.4053776 1.1236505-.1280002.4229772-.5184594.7117829-.9603776.7103495z"/></g></g></g></svg>