<?xml version="1.0" encoding="UTF-8"?>
<svg enable-background="new 0 0 56 56" version="1.1" viewBox="0 0 56 56" xml:space="preserve" xmlns="http://www.w3.org/2000/svg">
<style type="text/css">
	.st0{fill-rule:evenodd;clip-rule:evenodd;fill:#DE323C;}
</style>
<title>Abacus Research AG</title>
<g transform="translate(-61 -52)">
<g transform="translate(61 52)">
<path class="st0" d="m17.3 15.3c-0.8-0.8-2.2-0.8-3 0s-0.8 2.2 0 3 2.2 0.8 3 0c0.8-0.9 0.8-2.2 0-3"/>
<path class="st0" d="m23 20.8c-0.8-0.8-2.2-0.8-3 0s-0.8 2.2 0 3 2.2 0.8 3 0 0.8-2.2 0-3"/>
<path class="st0" d="m23.2 9.2c-1-1-2.6-1-3.6 0s-1 2.6 0 3.6 2.6 1 3.6 0 1-2.6 0-3.6"/>
<path class="st0" d="m28.9 14.8c-1-1-2.6-1-3.6 0s-1 2.6 0 3.6 2.6 1 3.6 0c1-0.9 1-2.6 0-3.6"/>
<path class="st0" d="m34.5 20.5c-1-1-2.6-1-3.6 0s-1 2.6 0 3.6 2.6 1 3.6 0 1-2.6 0-3.6"/>
<path class="st0" d="m41.9 31.4c-1.2 1.2-1.2 3.1 0 4.3s3.1 1.2 4.3 0 1.2-3.1 0-4.3c-1.3-1.2-3.2-1.2-4.3 0"/>
<path class="st0" d="m36.2 37.1c-1.2 1.2-1.2 3.1 0 4.3s3.1 1.2 4.3 0 1.2-3.1 0-4.3-3.1-1.2-4.3 0"/>
<path class="st0" d="m30.6 42.7c-1.2 1.2-1.2 3.1 0 4.3s3.1 1.2 4.3 0 1.2-3.1 0-4.3-3.1-1.2-4.3 0"/>
<path class="st0" d="m24.9 48.3c-1.2 1.2-1.2 3.1 0 4.3s3.1 1.2 4.3 0 1.2-3.1 0-4.3c-1.2-1.1-3.1-1.1-4.3 0"/>
<path class="st0" d="m51.7 25.9c-1.2-1.2-3.1-1.2-4.3 0s-1.2 3.1 0 4.3 3.1 1.2 4.3 0 1.2-3.1 0-4.3"/>
<path class="st0" d="m46.1 20.3c-1.2-1.2-3.1-1.2-4.3 0s-1.2 3.1 0 4.3 3.1 1.2 4.3 0 1.2-3.1 0-4.3"/>
<path class="st0" d="m40.4 14.7c-1.2-1.2-3.1-1.2-4.3 0s-1.2 3.1 0 4.3 3.1 1.2 4.3 0 1.2-3.1 0-4.3"/>
<path class="st0" d="m34.8 9.1c-1.2-1.2-3.1-1.2-4.3 0s-1.2 3.1 0 4.3 3.1 1.2 4.3 0c1.2-1.3 1.2-3.2 0-4.3"/>
<path class="st0" d="m29.2 3.4c-1.2-1.2-3.1-1.2-4.3 0s-1.2 3.1 0 4.3 3.1 1.2 4.3 0c1.1-1.2 1.1-3.1 0-4.3"/>
<path class="st0" d="m19.6 43.1c-1 1-1 2.6 0 3.6s2.6 1 3.6 0 1-2.6 0-3.6-2.6-1-3.6 0"/>
<path class="st0" d="m14.4 37.7c-0.8 0.8-0.8 2.2 0 3s2.2 0.8 3 0 0.8-2.2 0-3c-0.9-0.8-2.2-0.8-3 0"/>
<path class="st0" d="m19.9 32c-0.8 0.8-0.8 2.2 0 3s2.2 0.8 3 0 0.8-2.2 0-3-2.2-0.8-3 0"/>
<path class="st0" d="m25.6 26.4c-0.8 0.8-0.8 2.2 0 3s2.2 0.8 3 0 0.8-2.2 0-3c-0.9-0.8-2.2-0.8-3 0"/>
<path class="st0" d="m14.7 26.6c-0.6 0.6-0.6 1.7 0 2.3s1.7 0.6 2.3 0 0.6-1.7 0-2.3-1.7-0.6-2.3 0"/>
<path class="st0" d="m9 32.2c-0.6 0.6-0.6 1.7 0 2.3s1.7 0.6 2.3 0c0.6-0.7 0.6-1.7 0-2.3s-1.7-0.6-2.3 0"/>
<path class="st0" d="m9.4 21.3c-0.6 0.7-0.6 1.7 0 2.3s1.7 0.6 2.3 0 0.6-1.7 0-2.3-1.6-0.6-2.3 0"/>
<path class="st0" d="m3.8 26.9c-0.6 0.6-0.6 1.5 0 2.1s1.5 0.6 2.1 0 0.6-1.5 0-2.1-1.5-0.6-2.1 0"/>
<path class="st0" d="m25.2 37.4c-1 1-1 2.6 0 3.6s2.6 1 3.6 0 1-2.6 0-3.6-2.6-1-3.6 0"/>
<path class="st0" d="m30.8 31.8c-1 1-1 2.6 0 3.6s2.6 1 3.6 0 1-2.6 0-3.6-2.6-1-3.6 0"/>
<path class="st0" d="m36.5 26.1c-1 1-1 2.6 0 3.6s2.6 1 3.6 0 1-2.6 0-3.6-2.6-1-3.6 0"/>
</g>
</g>
</svg>
